<svg width="32" height="32" viewBox="0 0 100 100" xmlns="http://www.w3.org/2000/svg">
  <rect width="100" height="100" rx="20" fill="#E8F7D4"/>
  <g stroke="#0A1628" stroke-width="5" stroke-linecap="round" stroke-linejoin="round" fill="none">
    <path d="M 18 32 Q 32 16 52 28"/>
    <path d="M 32 18 L 32 32"/>
    <path d="M 40 22 L 40 36"/>
    <path d="M 36 28 L 48 66"/>
  </g>
  <g stroke="#0A1628" stroke-width="3.6" fill="none">
    <circle cx="68" cy="28" r="9"/>
    <circle cx="86" cy="28" r="9"/>
    <circle cx="68" cy="48" r="9"/>
    <circle cx="86" cy="48" r="9"/>
    <path d="M 64 31 L 68 26 L 72 31" stroke-width="2.5"/>
    <path d="M 82 31 L 86 26 L 90 31" stroke-width="2.5"/>
    <path d="M 64 51 L 68 46 L 72 51" stroke-width="2.5"/>
    <path d="M 82 51 L 86 46 L 90 51" stroke-width="2.5"/>
  </g>
  <rect x="14" y="68" width="72" height="22" rx="6" fill="#0A1628"/>
  <text x="50" y="84" font-family="-apple-system, BlinkMacSystemFont, sans-serif" font-size="14" font-weight="800" fill="#A8E063" text-anchor="middle">CMM</text>
</svg>
